<?xml version="1.0" encoding="UTF-8" standalone="no"?>
<!-- Created with Inkscape (http://www.inkscape.org/) -->

<svg
   width="38mm"
   height="14mm"
   viewBox="0 0 38 14"
   version="1.1"
   id="svg12"
   inkscape:version="1.2.1 (9c6d41e410, 2022-07-14)"
   sodipodi:docname="mirow.svg"
   xmlns:inkscape="http://www.inkscape.org/namespaces/inkscape"
   xmlns:sodipodi="http://sodipodi.sourceforge.net/DTD/sodipodi-0.dtd"
   xmlns="http://www.w3.org/2000/svg"
   xmlns:svg="http://www.w3.org/2000/svg">
  <sodipodi:namedview
     id="namedview14"
     pagecolor="#ffffff"
     bordercolor="#eeeeee"
     borderopacity="1"
     inkscape:showpageshadow="0"
     inkscape:pageopacity="0"
     inkscape:pagecheckerboard="0"
     inkscape:deskcolor="#666666"
     inkscape:document-units="mm"
     showgrid="false"
     showguides="true"
     inkscape:zoom="2.8284906"
     inkscape:cx="76.542591"
     inkscape:cy="102.17464"
     inkscape:window-width="3840"
     inkscape:window-height="2050"
     inkscape:window-x="-12"
     inkscape:window-y="-12"
     inkscape:window-maximized="1"
     inkscape:current-layer="layer1">
    <sodipodi:guide
       position="268.96331,-100.65133"
       orientation="1,0"
       id="guide2508"
       inkscape:locked="false" />
  </sodipodi:namedview>
  <defs
     id="defs9">
    <linearGradient
       gradientTransform="matrix(2.4786246,0,0,2.4786246,72.216757,-44.112957)"
       gradientUnits="userSpaceOnUse"
       y2="9.0250902"
       x2="145"
       y1="9.0250902"
       id="linear-gradient">
      <stop
         id="stop4"
         stop-color="#01c3c6"
         offset="0.126" />
      <stop
         id="stop6"
         stop-color="#1493d3"
         offset="0.60576" />
      <stop
         id="stop8"
         stop-color="#2270dd"
         offset="1" />
    </linearGradient>
  </defs>
  <g
     inkscape:label="Ebene 1"
     inkscape:groupmode="layer"
     id="layer1"
     transform="translate(-0.08802781,51.953541)">
    <g
       id="g1060">
      <g
         aria-label="mirow"
         id="text120"
         style="font-size:14.326px;line-height:1.25;stroke-width:0.167882">
        <path
           d="m 0.90732346,-41.339901 v -3.966231 q 0,-1.399024 0.73448734,-2.210458 0.7344873,-0.811433 1.9796182,-0.811433 0.6365556,0 1.1751797,0.272809 0.538624,0.265815 0.9303506,0.783454 0.4057168,-0.524634 0.9373457,-0.790449 0.5316289,-0.265814 1.1681846,-0.265814 1.2311406,0 1.9656279,0.818429 0.7414825,0.811433 0.7414825,2.203462 v 3.966231 H 9.3224496 v -4.19707 q 0,-0.720497 -0.412712,-1.16119 -0.4127119,-0.440692 -1.077248,-0.440692 -0.6645362,0 -1.0772481,0.440692 -0.4127119,0.440693 -0.4127119,1.16119 v 4.19707 H 5.1253792 v -4.19707 q 0,-0.720497 -0.419707,-1.16119 -0.4197071,-0.440692 -1.0842432,-0.440692 -0.6715313,0 -1.0842432,0.440692 -0.4057168,0.440693 -0.4057168,1.16119 v 4.19707 z"
           style="font-family:'Bauhaus Md BT';-inkscape-font-specification:'Bauhaus Md BT'"
           id="path1042" />
        <path
           d="m 12.141482,-41.339901 v -6.86221 h 1.23114 v 6.86221 z m -0.132908,-8.813848 q 0,-0.307785 0.216849,-0.524634 0.216849,-0.216848 0.531629,-0.216848 0.31478,0 0.524634,0.216848 0.216848,0.209854 0.216848,0.524634 0,0.321776 -0.216848,0.545619 -0.209854,0.216849 -0.524634,0.216849 -0.307785,0 -0.531629,-0.223844 -0.216849,-0.223843 -0.216849,-0.538624 z"
           style="font-family:'Bauhaus Md BT';-inkscape-font-specification:'Bauhaus Md BT'"
           id="path1044" />
        <path
           d="m 15.05145,-41.339901 v -6.86221 h 1.133209 v 1.014292 q 0.31478,-0.60158 0.867395,-0.867395 0.552614,-0.272809 1.48996,-0.272809 h 0.321775 v 1.18917 h -0.188868 q -1.266116,0 -1.832721,0.60158 -0.559609,0.60158 -0.559609,1.958633 v 3.238739 z"
           style="font-family:'Bauhaus Md BT';-inkscape-font-specification:'Bauhaus Md BT'"
           id="path1046" />
        <path
           d="m 20.570598,-44.795489 q 0,1.000302 0.636556,1.699814 0.643551,0.692516 1.552916,0.692516 0.909365,0 1.545921,-0.692516 0.643551,-0.699512 0.643551,-1.699814 0,-0.993307 -0.636556,-1.685823 -0.636556,-0.692517 -1.552916,-0.692517 -0.909365,0 -1.552916,0.692517 -0.636556,0.692516 -0.636556,1.685823 z m -1.280106,0.01399 q 0,-0.713502 0.265814,-1.357052 0.265815,-0.643551 0.769463,-1.16119 0.496653,-0.503648 1.112224,-0.762468 0.622565,-0.265814 1.322077,-0.265814 0.699512,0 1.329072,0.265814 0.629561,0.25882 1.119219,0.762468 0.496653,0.503649 0.755473,1.154194 0.265814,0.650546 0.265814,1.364048 0,0.727493 -0.265814,1.385034 -0.25882,0.650545 -0.755473,1.154194 -0.489658,0.503648 -1.119219,0.769463 -0.62956,0.258819 -1.329072,0.258819 -0.699512,0 -1.322077,-0.258819 -0.615571,-0.265815 -1.112224,-0.769463 -0.503648,-0.510644 -0.769463,-1.16119 -0.265814,-0.650545 -0.265814,-1.378038 z"
           style="font-family:'Bauhaus Md BT';-inkscape-font-specification:'Bauhaus Md BT'"
           id="path1048" />
        <path
           d="m 37.030109,-48.202111 v 3.966231 q 0,1.399024 -0.734487,2.210458 -0.734488,0.811433 -1.972623,0.811433 -0.643551,0 -1.182175,-0.265814 -0.538624,-0.27281 -0.923356,-0.790449 -0.412712,0.524634 -0.944341,0.790449 -0.531628,0.265814 -1.161189,0.265814 -1.238136,0 -1.979618,-0.811433 -0.734488,-0.818429 -0.734488,-2.210458 v -3.966231 h 1.224146 v 4.18308 q 0,0.727492 0.405717,1.17518 0.412712,0.440692 1.084243,0.440692 0.664536,0 1.084243,-0.447687 0.419707,-0.447688 0.419707,-1.168185 v -4.18308 h 1.217151 v 4.18308 q 0,0.727492 0.405716,1.17518 0.412712,0.440692 1.084244,0.440692 0.657541,0 1.070253,-0.447687 0.419707,-0.447688 0.419707,-1.168185 v -4.18308 z"
           style="font-family:'Bauhaus Md BT';-inkscape-font-specification:'Bauhaus Md BT'"
           id="path1050" />
      </g>
      <rect
         style="fill:#00b1f0;fill-opacity:1;stroke-width:39.6577;stroke-linecap:square;paint-order:stroke markers fill"
         id="rect207-9"
         width="36.118622"
         height="1.2252496"
         x="0.91064852"
         y="-40.120457" />
    </g>
  </g>
</svg>
