<?xml version="1.0" encoding="UTF-8" standalone="no"?>
<!-- Created with Inkscape (http://www.inkscape.org/) -->

<svg
   width="60mm"
   height="14mm"
   viewBox="0 0 60 14"
   version="1.1"
   id="svg12"
   inkscape:version="1.2.1 (9c6d41e410, 2022-07-14)"
   sodipodi:docname="sectordev.svg"
   xmlns:inkscape="http://www.inkscape.org/namespaces/inkscape"
   xmlns:sodipodi="http://sodipodi.sourceforge.net/DTD/sodipodi-0.dtd"
   xmlns="http://www.w3.org/2000/svg"
   xmlns:svg="http://www.w3.org/2000/svg">
  <sodipodi:namedview
     id="namedview14"
     pagecolor="#ffffff"
     bordercolor="#eeeeee"
     borderopacity="1"
     inkscape:showpageshadow="0"
     inkscape:pageopacity="0"
     inkscape:pagecheckerboard="0"
     inkscape:deskcolor="#666666"
     inkscape:document-units="mm"
     showgrid="false"
     showguides="true"
     inkscape:zoom="2.8284906"
     inkscape:cx="76.542591"
     inkscape:cy="102.17464"
     inkscape:window-width="3840"
     inkscape:window-height="2050"
     inkscape:window-x="-12"
     inkscape:window-y="-12"
     inkscape:window-maximized="1"
     inkscape:current-layer="layer1">
    <sodipodi:guide
       position="268.96329,-100.65133"
       orientation="1,0"
       id="guide2508"
       inkscape:locked="false" />
  </sodipodi:namedview>
  <defs
     id="defs9">
    <linearGradient
       gradientTransform="matrix(2.4786246,0,0,2.4786246,72.216757,-44.112957)"
       gradientUnits="userSpaceOnUse"
       y2="9.0250902"
       x2="145"
       y1="9.0250902"
       id="linear-gradient">
      <stop
         id="stop4"
         stop-color="#01c3c6"
         offset="0.126" />
      <stop
         id="stop6"
         stop-color="#1493d3"
         offset="0.60576" />
      <stop
         id="stop8"
         stop-color="#2270dd"
         offset="1" />
    </linearGradient>
  </defs>
  <g
     inkscape:label="Ebene 1"
     inkscape:groupmode="layer"
     id="layer1"
     transform="translate(-0.08802781,51.953541)">
    <g
       id="g886">
      <g
         aria-label="SectorDev"
         id="text120-8"
         style="font-size:13.7952px;line-height:1.25;stroke-width:0.161663">
        <path
           d="m 0.83005045,-41.249332 v -1.279829 H 4.123924 q 0.7881047,0 1.1922609,-0.309853 0.4108922,-0.309853 0.4108922,-0.909351 0,-0.46478 -0.316589,-0.808313 -0.3098532,-0.350269 -1.1720532,-0.788105 l -1.616625,-0.82852 q -0.8891438,-0.451308 -1.3202438,-1.037334 -0.43110002,-0.592763 -0.43110002,-1.347188 0,-1.084486 0.78810472,-1.710928 0.7881047,-0.626442 2.162236,-0.626442 H 6.609485 v 1.273092 H 3.3964427 q -0.5523469,0 -0.8824078,0.282909 -0.323325,0.276174 -0.323325,0.734218 0,0.417628 0.2829093,0.727481 0.2896454,0.303117 1.3741313,0.8622 l 1.407811,0.714009 q 0.9228235,0.471516 1.3606594,1.07775 0.4445719,0.606235 0.4445719,1.407811 0,1.219205 -0.8352563,1.892799 -0.8285203,0.673594 -2.3508422,0.673594 z"
           style="font-family:'Bauhaus Md BT';-inkscape-font-specification:'Bauhaus Md BT'"
           id="path856" />
        <path
           d="m 14.665667,-44.172729 q -0.24923,1.414547 -1.14511,2.236331 -0.895879,0.821784 -2.182444,0.821784 -0.437836,0 -0.868936,-0.121247 -0.424364,-0.11451 -0.8015761,-0.343532 -0.7948407,-0.484988 -1.2326766,-1.266357 -0.4378359,-0.781368 -0.4378359,-1.717664 0,-0.687065 0.2492296,-1.306772 0.2559657,-0.619706 0.7342173,-1.118165 0.4782515,-0.491724 1.0844857,-0.747689 0.612971,-0.255966 1.286564,-0.255966 1.003655,0 1.79176,0.532139 0.79484,0.525403 1.286564,1.535794 l -4.331208,2.397994 -0.4984595,-0.89588 3.2130425,-1.791759 q -0.296381,-0.330061 -0.666858,-0.49846 -0.370477,-0.168398 -0.808313,-0.168398 -0.889143,0 -1.5021137,0.666858 -0.6062344,0.660121 -0.6062344,1.636832 0,0.969975 0.6129704,1.636833 0.6129707,0.666858 1.4953777,0.666858 0.841993,0 1.407811,-0.552347 0.572555,-0.559083 0.71401,-1.529058 z"
           style="font-family:'Bauhaus Md BT';-inkscape-font-specification:'Bauhaus Md BT'"
           id="path858" />
        <path
           d="m 19.946642,-46.72565 h -0.511931 q -1.246149,0 -1.987102,0.599499 -0.740953,0.592762 -0.740953,1.582945 0,0.983447 0.740953,1.582945 0.747689,0.592763 1.987102,0.592763 h 0.511931 v 1.118166 h -0.592763 q -1.771551,0 -2.829093,-0.902616 -1.050807,-0.909352 -1.050807,-2.411466 0,-0.808312 0.377213,-1.50885 0.377212,-0.700537 1.071014,-1.178789 0.484988,-0.323325 1.030598,-0.46478 0.545611,-0.141454 1.401075,-0.141454 h 0.592763 z"
           style="font-family:'Bauhaus Md BT';-inkscape-font-specification:'Bauhaus Md BT'"
           id="path860" />
        <path
           d="m 21.09175,-49.608631 h 1.185525 v 1.751344 h 2.000574 v 1.118165 h -2.000574 v 2.829094 q 0,0.794841 0.383949,1.165317 0.390684,0.363741 1.239412,0.363741 h 0.377213 v 1.131638 h -0.390684 q -1.401076,0 -2.101613,-0.612971 -0.693802,-0.61297 -0.693802,-1.845647 z"
           style="font-family:'Bauhaus Md BT';-inkscape-font-specification:'Bauhaus Md BT'"
           id="path862" />
        <path
           d="m 26.345783,-44.576886 q 0,0.963239 0.61297,1.636833 0.619706,0.666858 1.495378,0.666858 0.875672,0 1.488642,-0.666858 0.619707,-0.673594 0.619707,-1.636833 0,-0.956503 -0.612971,-1.623361 -0.61297,-0.666857 -1.495378,-0.666857 -0.875672,0 -1.495378,0.666857 -0.61297,0.666858 -0.61297,1.623361 z m -1.232677,0.01347 q 0,-0.687065 0.255966,-1.306772 0.255965,-0.619706 0.740953,-1.118165 0.478252,-0.484988 1.071014,-0.734218 0.599498,-0.255965 1.273092,-0.255965 0.673594,0 1.279828,0.255965 0.606235,0.24923 1.07775,0.734218 0.478252,0.484987 0.727482,1.111429 0.255965,0.626443 0.255965,1.313508 0,0.700538 -0.255965,1.333716 -0.24923,0.626442 -0.727482,1.11143 -0.471515,0.484987 -1.07775,0.740953 -0.606234,0.249229 -1.279828,0.249229 -0.673594,0 -1.273092,-0.249229 -0.592762,-0.255966 -1.071014,-0.740953 -0.484988,-0.491724 -0.740953,-1.118166 -0.255966,-0.626442 -0.255966,-1.32698 z"
           style="font-family:'Bauhaus Md BT';-inkscape-font-specification:'Bauhaus Md BT'"
           id="path864" />
        <path
           d="m 33.007624,-41.249332 v -6.607955 h 1.091222 v 0.976711 q 0.303117,-0.579291 0.835256,-0.835257 0.53214,-0.262701 1.434755,-0.262701 h 0.309853 v 1.145109 h -0.18187 q -1.219205,0 -1.764816,0.579291 -0.538875,0.579291 -0.538875,1.886062 v 3.11874 z"
           style="font-family:'Bauhaus Md BT';-inkscape-font-specification:'Bauhaus Md BT'"
           id="path866" />
        <path
           d="m 39.272048,-42.421386 q 0.05389,0 0.161662,0.0067 0.107775,0.0067 0.154927,0.0067 1.798495,0 2.882981,-1.01039 1.091222,-1.017127 1.091222,-2.674168 0,-1.69072 -1.11143,-2.687639 -1.11143,-0.996919 -3.010964,-0.996919 -0.101039,0 -0.229022,0.0067 -0.127983,0.0067 -0.377212,0.02021 l -0.0067,8.500754 h -1.266357 v -9.645863 h 1.657041 q 1.11143,0 1.90627,0.168398 0.801577,0.168399 1.374132,0.511932 1.165317,0.700537 1.771551,1.758079 0.606235,1.057542 0.606235,2.377786 0,1.320244 -0.639914,2.40473 -0.633178,1.084486 -1.805232,1.778288 -0.538875,0.316589 -1.313507,0.484987 -0.774633,0.161663 -1.737872,0.161663 h -0.107775 z"
           style="font-family:'Bauhaus Md BT';-inkscape-font-specification:'Bauhaus Md BT'"
           id="path868" />
        <path
           d="m 52.393653,-44.172729 q -0.249229,1.414547 -1.145109,2.236331 -0.89588,0.821784 -2.182444,0.821784 -0.437836,0 -0.868936,-0.121247 -0.424364,-0.11451 -0.801576,-0.343532 -0.794841,-0.484988 -1.232677,-1.266357 -0.437836,-0.781368 -0.437836,-1.717664 0,-0.687065 0.24923,-1.306772 0.255965,-0.619706 0.734217,-1.118165 0.478252,-0.491724 1.084486,-0.747689 0.61297,-0.255966 1.286564,-0.255966 1.003655,0 1.79176,0.532139 0.79484,0.525403 1.286564,1.535794 l -4.331208,2.397994 -0.49846,-0.89588 3.213043,-1.791759 q -0.296382,-0.330061 -0.666858,-0.49846 -0.370477,-0.168398 -0.808313,-0.168398 -0.889144,0 -1.502114,0.666858 -0.606234,0.660121 -0.606234,1.636832 0,0.969975 0.61297,1.636833 0.61297,0.666858 1.495378,0.666858 0.841992,0 1.407811,-0.552347 0.572555,-0.559083 0.71401,-1.529058 z"
           style="font-family:'Bauhaus Md BT';-inkscape-font-specification:'Bauhaus Md BT'"
           id="path870" />
        <path
           d="m 54.003542,-47.857287 1.892799,5.200144 1.886062,-5.200144 h 1.219205 l -2.209387,5.947833 q -0.154927,0.417628 -0.377213,0.606234 -0.21555,0.188606 -0.532139,0.188606 -0.316589,0 -0.532139,-0.188606 -0.208814,-0.188606 -0.363741,-0.606234 l -2.195915,-5.947833 z"
           style="font-family:'Bauhaus Md BT';-inkscape-font-specification:'Bauhaus Md BT'"
           id="path872" />
      </g>
      <rect
         style="fill:#00bc09;fill-opacity:1;stroke-width:49.3879;stroke-linecap:square;paint-order:stroke markers fill"
         id="rect207-9-3"
         width="58.170753"
         height="1.1798577"
         x="0.82980651"
         y="-40.075066" />
    </g>
  </g>
</svg>
